# xmcd
#
# Track frame offsets:
#	225
#	12172
#	23886
#	42565
#	63109
#	76459
#	89125
#	105222
#	114419
#	127974
#	148495
#	159450
#	171583
#	187108
#	207099
#
# Disc length: 2974 seconds
# Revision: 0
# Processed by: cddbd v1.5.2PL0 Copyright (c) Steve Scherf et al.
# Submitted via: dBpowerAMP V12.0
#
DISCID=d10b9b0f
DTITLE=Nicolas Ducron - L'agitation humaine
DYEAR=2010
DGENRE=Chanson
TTITLE0=L'agitation humaine
TTITLE1=La complainte des laides
TTITLE2=Oh television
TTITLE3=Glady's
TTITLE4=Christobal
TTITLE5=Theodolinda
TTITLE6=La rose
TTITLE7=Le funambule
TTITLE8=Liebesdield
TTITLE9=Les demoiselles d'Avigon
TTITLE10=Raymond Souplex
TTITLE11=Stella
TTITLE12=In Hambourg
TTITLE13=Les clodos
TTITLE14=Pablo
EXTD=
EXTT0=
EXTT1=
EXTT2=
EXTT3=
EXTT4=
EXTT5=
EXTT6=
EXTT7=
EXTT8=
EXTT9=
EXTT10=
EXTT11=
EXTT12=
EXTT13=
EXTT14=
PLAYORDER=
